<?xml version="1.0" encoding="UTF-8" standalone="no"?>
<!-- Created with Inkscape (http://www.inkscape.org/) -->

<svg
   xmlns:dc="http://purl.org/dc/elements/1.1/"
   xmlns:cc="http://creativecommons.org/ns#"
   xmlns:rdf="http://www.w3.org/1999/02/22-rdf-syntax-ns#"
   xmlns:svg="http://www.w3.org/2000/svg"
   xmlns="http://www.w3.org/2000/svg"
   xmlns:sodipodi="http://sodipodi.sourceforge.net/DTD/sodipodi-0.dtd"
   xmlns:inkscape="http://www.inkscape.org/namespaces/inkscape"
   id="svg3408"
   version="1.1"
   inkscape:version="0.91 r"
   xml:space="preserve"
   width="744.09497"
   height="1052.3625"
   viewBox="0 0 744.09497 1052.3625"
   sodipodi:docname="mildvs2.ai.svg"><metadata
     id="metadata3414"><rdf:RDF><cc:Work
         rdf:about=""><dc:format>image/svg+xml</dc:format><dc:type
           rdf:resource="http://purl.org/dc/dcmitype/StillImage" /><dc:title></dc:title></cc:Work></rdf:RDF></metadata><defs
     id="defs3412"><linearGradient
       x1="0"
       y1="0"
       x2="1"
       y2="0"
       gradientUnits="userSpaceOnUse"
       gradientTransform="matrix(2.6089191,31.813127,31.813127,-2.6089191,230.9015,311.96906)"
       spreadMethod="pad"
       id="linearGradient3432"><stop
         style="stop-opacity:1;stop-color:#61396a"
         offset="0"
         id="stop3434" /><stop
         style="stop-opacity:1;stop-color:#ab467e"
         offset="0.3400759"
         id="stop3436" /><stop
         style="stop-opacity:1;stop-color:#ab467e"
         offset="1"
         id="stop3438" /></linearGradient><linearGradient
       x1="0"
       y1="0"
       x2="1"
       y2="0"
       gradientUnits="userSpaceOnUse"
       gradientTransform="matrix(1.3984385,27.129513,27.129513,-1.3984385,344.05838,313.37698)"
       spreadMethod="pad"
       id="linearGradient3454"><stop
         style="stop-opacity:1;stop-color:#61396a"
         offset="0"
         id="stop3456" /><stop
         style="stop-opacity:1;stop-color:#ab467e"
         offset="0.3400759"
         id="stop3458" /><stop
         style="stop-opacity:1;stop-color:#ab467e"
         offset="1"
         id="stop3460" /></linearGradient><linearGradient
       x1="0"
       y1="0"
       x2="1"
       y2="0"
       gradientUnits="userSpaceOnUse"
       gradientTransform="matrix(0.069767,8.5375147,8.5375147,-0.069767,297.56232,291.17114)"
       spreadMethod="pad"
       id="linearGradient3476"><stop
         style="stop-opacity:1;stop-color:#61396a"
         offset="0"
         id="stop3478" /><stop
         style="stop-opacity:1;stop-color:#ab467e"
         offset="0.3400759"
         id="stop3480" /><stop
         style="stop-opacity:1;stop-color:#ab467e"
         offset="1"
         id="stop3482" /></linearGradient><linearGradient
       x1="0"
       y1="0"
       x2="1"
       y2="0"
       gradientUnits="userSpaceOnUse"
       gradientTransform="matrix(2.6979973,52.43869,52.43869,-2.6979973,307.34094,442.63641)"
       spreadMethod="pad"
       id="linearGradient3498"><stop
         style="stop-opacity:1;stop-color:#ab467e"
         offset="0"
         id="stop3500" /><stop
         style="stop-opacity:1;stop-color:#ce4b6d"
         offset="0.41"
         id="stop3502" /><stop
         style="stop-opacity:1;stop-color:#ea5d6c"
         offset="1"
         id="stop3504" /></linearGradient><linearGradient
       x1="0"
       y1="0"
       x2="1"
       y2="0"
       gradientUnits="userSpaceOnUse"
       gradientTransform="matrix(11.610229,180.97055,180.97055,-11.610229,287.0072,370.02872)"
       spreadMethod="pad"
       id="linearGradient3520"><stop
         style="stop-opacity:1;stop-color:#ab467e"
         offset="0"
         id="stop3522" /><stop
         style="stop-opacity:1;stop-color:#ce4b6d"
         offset="0.41"
         id="stop3524" /><stop
         style="stop-opacity:1;stop-color:#ea5d6c"
         offset="1"
         id="stop3526" /></linearGradient></defs><sodipodi:namedview
     pagecolor="#ffffff"
     bordercolor="#666666"
     borderopacity="1"
     objecttolerance="10"
     gridtolerance="10"
     guidetolerance="10"
     inkscape:pageopacity="0"
     inkscape:pageshadow="2"
     inkscape:window-width="1318"
     inkscape:window-height="716"
     id="namedview3410"
     showgrid="false"
     inkscape:zoom="0.53498673"
     inkscape:cx="372.04749"
     inkscape:cy="597.29627"
     inkscape:window-x="48"
     inkscape:window-y="24"
     inkscape:window-maximized="1"
     inkscape:current-layer="g3416" /><g
     id="g3416"
     inkscape:groupmode="layer"
     inkscape:label="mildvs"
     transform="matrix(1.25,0,0,-1.25,0,1052.3625)"><g
       id="g3420"
       transform="matrix(2.7510449,0,0,2.2345456,-521.9251,-449.39358)"><g
         id="g3422"><g
           id="g3428"><g
             id="g3430"><path
               d="m 266.342,343.624 0,-11.972 c -1.362,1.195 -3.129,1.793 -5.298,1.793 l 0,0 c -1.501,0 -2.865,-0.278 -4.088,-0.835 l 0,0 c -1.223,-0.555 -2.267,-1.313 -3.128,-2.273 l 0,0 c -0.862,-0.959 -1.53,-2.1 -2.003,-3.421 l 0,0 c -0.473,-1.32 -0.71,-2.732 -0.71,-4.235 l 0,0 c 0,-1.5 0.231,-2.906 0.689,-4.212 l 0,0 c 0.459,-1.308 1.119,-2.448 1.982,-3.421 l 0,0 c 0.862,-0.974 1.905,-1.738 3.129,-2.294 l 0,0 c 1.223,-0.557 2.6,-0.835 4.129,-0.835 l 0,0 c 2.114,0 3.936,0.682 5.465,2.045 l 0,0 0.167,-1.627 4.422,0 0,31.287 -4.756,0 z m -8.927,-25.809 c -0.974,1.266 -1.459,2.892 -1.459,4.888 l 0,0 c 0,2.023 0.485,3.65 1.459,4.888 l 0,0 c 0.973,1.23 2.294,1.849 3.963,1.849 l 0,0 c 1.613,0 2.899,-0.612 3.859,-1.828 l 0,0 c 0.96,-1.224 1.439,-2.871 1.439,-4.951 l 0,0 c 0,-2.106 -0.479,-3.754 -1.439,-4.95 l 0,0 c -0.96,-1.188 -2.246,-1.787 -3.859,-1.787 l 0,0 c -1.669,0 -2.99,0.633 -3.963,1.891 m -17.822,25.809 0,-26.407 c 0,-1.529 0.444,-2.795 1.334,-3.796 l 0,0 c 0.89,-1.001 2.225,-1.502 4.005,-1.502 l 0,0 1.669,0 0.459,3.88 c -0.612,0 -1.099,0.028 -1.461,0.084 l 0,0 c -0.361,0.055 -0.633,0.202 -0.813,0.437 l 0,0 c -0.18,0.237 -0.298,0.592 -0.354,1.064 l 0,0 c -0.056,0.473 -0.084,1.127 -0.084,1.961 l 0,0 0,24.279 -4.755,0 z m -11.942,-6.966 4.757,0 0,4.881 -4.757,0 0,-4.881 z m -14.275,4.88 -7.217,-13.682 -7.3,13.682 -4.089,0 -4.004,-29.201 5.131,0 2.586,20.316 7.676,-13.934 7.593,13.975 2.585,-20.357 5.131,0 -4.004,29.201 -4.088,0 z m 14.275,-29.201 4.757,0 0,20.732 -4.757,0 0,-20.732 z"
               style="fill:url(#linearGradient3432);stroke:none"
               id="path3440"
               inkscape:connector-curvature="0" /></g></g></g></g><g
       id="g3442"
       transform="matrix(2.7510449,0,0,2.2345456,-521.9251,-449.39359)"><g
         id="g3444"><g
           id="g3450"><g
             id="g3452"><path
               d="m 348.633,337.701 4.756,0 0,4.881 -4.756,0 0,-4.881 z m -31.766,0 4.756,0 0,4.881 -4.756,0 0,-4.881 z m -9.812,4.88 -8.343,-22.944 -8.469,22.944 -5.131,0 10.721,-29.202 5.798,0 10.555,29.202 -5.131,0 z m 83.48,-10.011 -0.167,1.542 -4.255,0 0,-20.733 4.714,0 0,15.06 c 1.029,1.363 2.517,2.045 4.464,2.045 l 0,0 c 1.585,0 2.732,-0.474 3.441,-1.42 l 0,0 c 0.71,-0.945 1.064,-2.433 1.064,-4.462 l 0,0 0,-11.223 4.713,0 0,11.223 c 0,6.591 -2.906,9.886 -8.718,9.886 l 0,0 c -1.891,0 -3.643,-0.639 -5.256,-1.918 m -25.102,1.083 c -1.293,-0.555 -2.391,-1.313 -3.296,-2.273 l 0,0 c -0.904,-0.959 -1.599,-2.1 -2.086,-3.421 l 0,0 c -0.486,-1.32 -0.73,-2.732 -0.73,-4.234 l 0,0 c 0,-1.53 0.244,-2.948 0.73,-4.256 l 0,0 c 0.487,-1.306 1.182,-2.44 2.086,-3.399 l 0,0 c 0.905,-0.959 1.996,-1.717 3.275,-2.273 l 0,0 c 1.279,-0.557 2.726,-0.835 4.339,-0.835 l 0,0 c 1.584,0 3.024,0.278 4.318,0.835 l 0,0 c 1.292,0.556 2.391,1.32 3.296,2.294 l 0,0 c 0.902,0.974 1.598,2.113 2.085,3.421 l 0,0 c 0.487,1.307 0.73,2.711 0.73,4.213 l 0,0 c 0,1.502 -0.25,2.906 -0.752,4.213 l 0,0 c -0.499,1.307 -1.201,2.447 -2.106,3.421 l 0,0 c -0.903,0.974 -1.995,1.739 -3.274,2.294 l 0,0 c -1.28,0.557 -2.713,0.835 -4.297,0.835 l 0,0 c -1.585,0 -3.024,-0.278 -4.318,-0.835 m 0.208,-14.857 c -0.987,1.223 -1.48,2.871 -1.48,4.95 l 0,0 c 0,2.079 0.493,3.72 1.48,4.93 l 0,0 c 0.987,1.202 2.358,1.808 4.11,1.808 l 0,0 c 1.752,0 3.122,-0.606 4.109,-1.808 l 0,0 c 0.986,-1.21 1.48,-2.851 1.48,-4.93 l 0,0 c 0,-2.079 -0.494,-3.727 -1.48,-4.95 l 0,0 c -0.987,-1.217 -2.357,-1.83 -4.109,-1.83 l 0,0 c -1.752,0 -3.123,0.613 -4.11,1.83 m -33.475,15.149 c -0.959,-0.361 -1.752,-0.841 -2.378,-1.438 l 0,0 c -0.625,-0.599 -1.084,-1.294 -1.376,-2.086 l 0,0 c -0.293,-0.793 -0.439,-1.606 -0.439,-2.44 l 0,0 c 0,-1.975 0.683,-3.365 2.044,-4.173 l 0,0 c 0.613,-0.361 1.377,-0.688 2.295,-0.98 l 0,0 c 0.917,-0.291 1.801,-0.605 2.649,-0.939 l 0,0 c 0.849,-0.333 1.572,-0.723 2.17,-1.167 l 0,0 c 0.598,-0.445 0.896,-1.002 0.896,-1.669 l 0,0 c 0,-0.695 -0.278,-1.266 -0.834,-1.71 l 0,0 c -0.556,-0.446 -1.433,-0.668 -2.628,-0.668 l 0,0 c -0.585,0 -1.189,0.062 -1.815,0.188 l 0,0 c -0.626,0.125 -1.223,0.284 -1.794,0.48 l 0,0 c -0.571,0.194 -1.099,0.417 -1.585,0.667 l 0,0 c -0.486,0.25 -0.896,0.501 -1.23,0.751 l 0,0 -0.459,-4.172 c 1.613,-1.084 3.963,-1.627 7.05,-1.627 l 0,0 c 1.696,0 3.073,0.196 4.13,0.584 l 0,0 c 1.057,0.389 1.877,0.891 2.461,1.502 l 0,0 c 0.584,0.613 0.973,1.272 1.168,1.981 l 0,0 c 0.195,0.71 0.292,1.399 0.292,2.066 l 0,0 c 0,3.226 -1.919,5.325 -5.756,6.299 l 0,0 c -0.613,0.167 -1.204,0.32 -1.774,0.459 l 0,0 c -0.569,0.14 -1.078,0.319 -1.522,0.542 l 0,0 c -0.446,0.222 -0.8,0.5 -1.064,0.834 l 0,0 c -0.265,0.335 -0.397,0.779 -0.397,1.336 l 0,0 c 0,0.833 0.341,1.445 1.023,1.835 l 0,0 c 0.681,0.39 1.55,0.583 2.607,0.583 l 0,0 c 2.114,0 3.949,-0.695 5.506,-2.085 l 0,0 0.459,4.088 c -1.641,1.001 -3.726,1.502 -6.258,1.502 l 0,0 c -1.334,0 -2.481,-0.18 -3.441,-0.543 m 16.467,-20.566 4.756,0 0,20.733 -4.756,0 0,-20.733 z m -31.766,0 4.756,0 0,20.733 -4.756,0 0,-20.733 z"
               style="fill:url(#linearGradient3454);stroke:none"
               id="path3462"
               inkscape:connector-curvature="0" /></g></g></g></g><g
       id="g3464"
       transform="matrix(2.7510449,0,0,2.2345456,-521.9251,-449.39361)"><g
         id="g3466"><g
           id="g3472"><g
             id="g3474"><path
               d="m 400.079,299.433 c -0.37,-0.139 -0.673,-0.322 -0.912,-0.548 l 0,0 c -0.238,-0.228 -0.415,-0.485 -0.53,-0.774 l 0,0 c -0.115,-0.288 -0.173,-0.585 -0.173,-0.893 l 0,0 c 0.023,-0.493 0.146,-0.877 0.369,-1.154 l 0,0 c 0.222,-0.277 0.576,-0.515 1.061,-0.716 l 0,0 0.461,-0.196 1.085,-0.382 c 0.146,-0.046 0.295,-0.104 0.444,-0.173 l 0,0 c 0.15,-0.071 0.289,-0.157 0.416,-0.257 l 0,0 c 0.127,-0.099 0.23,-0.216 0.311,-0.352 l 0,0 c 0.08,-0.135 0.121,-0.287 0.121,-0.458 l 0,0 c 0,-0.586 -0.481,-0.881 -1.442,-0.881 l 0,0 c -0.561,0 -1.064,0.084 -1.506,0.251 l 0,0 c -0.441,0.169 -0.786,0.371 -1.032,0.613 l 0,0 -0.173,-1.683 c 0.254,-0.162 0.62,-0.299 1.096,-0.415 l 0,0 c 0.478,-0.117 1.004,-0.174 1.581,-0.174 l 0,0 c 0.699,0 1.256,0.084 1.671,0.248 l 0,0 c 0.417,0.167 0.732,0.374 0.947,0.623 l 0,0 c 0.216,0.25 0.354,0.518 0.415,0.802 l 0,0 c 0.063,0.285 0.093,0.55 0.093,0.796 l 0,0 c 0,0.285 -0.05,0.541 -0.151,0.767 l 0,0 c -0.099,0.227 -0.225,0.425 -0.375,0.594 l 0,0 c -0.149,0.17 -0.312,0.312 -0.49,0.427 l 0,0 c -0.177,0.115 -0.345,0.204 -0.506,0.265 l 0,0 -0.624,0.243 c -0.377,0.146 -0.707,0.263 -0.992,0.351 l 0,0 c -0.285,0.09 -0.522,0.176 -0.71,0.26 l 0,0 c -0.188,0.085 -0.33,0.183 -0.426,0.295 l 0,0 c -0.097,0.111 -0.144,0.267 -0.144,0.467 l 0,0 c 0,0.155 0.04,0.284 0.12,0.391 l 0,0 c 0.081,0.109 0.188,0.197 0.323,0.266 l 0,0 c 0.135,0.069 0.291,0.12 0.468,0.15 l 0,0 c 0.177,0.031 0.365,0.046 0.565,0.046 l 0,0 c 0.684,0 1.473,-0.242 2.365,-0.726 l 0,0 0.15,1.511 c -0.115,0.069 -0.265,0.142 -0.45,0.219 l 0,0 c -0.184,0.078 -0.392,0.145 -0.624,0.201 l 0,0 c -0.23,0.06 -0.474,0.107 -0.731,0.145 l 0,0 c -0.259,0.039 -0.514,0.058 -0.767,0.058 l 0,0 c -0.5,0 -0.935,-0.07 -1.304,-0.207 m -54.116,-0.093 c -0.489,-0.2 -0.908,-0.484 -1.258,-0.853 l 0,0 c -0.35,-0.37 -0.625,-0.812 -0.825,-1.327 l 0,0 c -0.2,-0.515 -0.3,-1.089 -0.3,-1.72 l 0,0 c 0,-0.63 0.098,-1.203 0.295,-1.718 l 0,0 c 0.195,-0.515 0.47,-0.957 0.824,-1.326 l 0,0 c 0.354,-0.369 0.775,-0.655 1.264,-0.854 l 0,0 c 0.488,-0.2 1.02,-0.301 1.597,-0.301 l 0,0 c 1.169,0 2.122,0.385 2.862,1.155 l 0,0 c 0.746,0.768 1.119,1.783 1.119,3.044 l 0,0 c 0,0.624 -0.098,1.193 -0.295,1.708 l 0,0 c -0.197,0.515 -0.471,0.957 -0.824,1.327 l 0,0 c -0.354,0.369 -0.776,0.656 -1.263,0.859 l 0,0 c -0.489,0.204 -1.021,0.306 -1.599,0.306 l 0,0 c -0.577,0 -1.109,-0.1 -1.597,-0.3 m 0.582,-6.489 c -0.292,0.137 -0.538,0.325 -0.738,0.569 l 0,0 c -0.201,0.242 -0.352,0.536 -0.455,0.881 l 0,0 c -0.105,0.342 -0.157,0.723 -0.157,1.139 l 0,0 c 0,0.419 0.052,0.799 0.157,1.141 l 0,0 c 0.103,0.344 0.254,0.639 0.455,0.88 l 0,0 c 0.2,0.245 0.446,0.434 0.738,0.569 l 0,0 c 0.292,0.135 0.631,0.202 1.015,0.202 l 0,0 c 0.762,0 1.347,-0.255 1.754,-0.764 l 0,0 c 0.408,-0.517 0.611,-1.193 0.611,-2.028 l 0,0 c 0,-0.416 -0.052,-0.797 -0.155,-1.139 l 0,0 c -0.104,-0.345 -0.256,-0.639 -0.456,-0.881 l 0,0 c -0.199,-0.244 -0.446,-0.432 -0.739,-0.569 l 0,0 c -0.292,-0.135 -0.631,-0.202 -1.015,-0.202 l 0,0 c -0.384,0 -0.723,0.067 -1.015,0.202 m -127.731,6.489 c -0.488,-0.2 -0.907,-0.484 -1.257,-0.853 l 0,0 c -0.35,-0.37 -0.625,-0.812 -0.825,-1.327 l 0,0 c -0.2,-0.515 -0.3,-1.089 -0.3,-1.72 l 0,0 c 0,-0.63 0.098,-1.203 0.294,-1.718 l 0,0 c 0.196,-0.515 0.471,-0.957 0.825,-1.326 l 0,0 c 0.353,-0.369 0.775,-0.655 1.263,-0.854 l 0,0 c 0.489,-0.2 1.021,-0.301 1.598,-0.301 l 0,0 c 1.169,0 2.123,0.385 2.861,1.155 l 0,0 c 0.746,0.768 1.12,1.783 1.12,3.044 l 0,0 c 0,0.624 -0.099,1.193 -0.296,1.708 l 0,0 c -0.195,0.515 -0.47,0.957 -0.824,1.327 l 0,0 c -0.354,0.369 -0.775,0.656 -1.263,0.859 l 0,0 c -0.489,0.204 -1.021,0.306 -1.598,0.306 l 0,0 c -0.577,0 -1.109,-0.1 -1.598,-0.3 m 0.583,-6.489 c -0.293,0.137 -0.539,0.325 -0.738,0.569 l 0,0 c -0.2,0.242 -0.352,0.536 -0.457,0.881 l 0,0 c -0.103,0.342 -0.155,0.723 -0.155,1.139 l 0,0 c 0,0.419 0.052,0.799 0.155,1.141 l 0,0 c 0.105,0.344 0.257,0.639 0.457,0.88 l 0,0 c 0.199,0.245 0.445,0.434 0.738,0.569 l 0,0 c 0.292,0.135 0.63,0.202 1.015,0.202 l 0,0 c 0.761,0 1.346,-0.255 1.754,-0.764 l 0,0 c 0.407,-0.517 0.611,-1.193 0.611,-2.028 l 0,0 c 0,-0.416 -0.052,-0.797 -0.156,-1.139 l 0,0 c -0.103,-0.345 -0.255,-0.639 -0.455,-0.881 l 0,0 c -0.201,-0.244 -0.447,-0.432 -0.739,-0.569 l 0,0 c -0.293,-0.135 -0.631,-0.202 -1.015,-0.202 l 0,0 c -0.385,0 -0.723,0.067 -1.015,0.202 m -26.969,6.582 c -0.369,-0.139 -0.672,-0.322 -0.912,-0.548 l 0,0 c -0.238,-0.228 -0.414,-0.485 -0.531,-0.774 l 0,0 c -0.115,-0.288 -0.172,-0.585 -0.172,-0.893 l 0,0 c 0.023,-0.493 0.146,-0.877 0.369,-1.154 l 0,0 c 0.224,-0.277 0.576,-0.515 1.062,-0.716 l 0,0 0.461,-0.196 1.085,-0.382 c 0.146,-0.046 0.293,-0.104 0.443,-0.173 l 0,0 c 0.151,-0.071 0.289,-0.157 0.416,-0.257 l 0,0 c 0.127,-0.099 0.231,-0.216 0.312,-0.352 l 0,0 c 0.08,-0.135 0.12,-0.287 0.12,-0.458 l 0,0 c 0,-0.586 -0.48,-0.881 -1.442,-0.881 l 0,0 c -0.561,0 -1.062,0.084 -1.505,0.251 l 0,0 c -0.442,0.169 -0.786,0.371 -1.032,0.613 l 0,0 -0.174,-1.683 c 0.254,-0.162 0.619,-0.299 1.096,-0.415 l 0,0 c 0.477,-0.117 1.003,-0.174 1.581,-0.174 l 0,0 c 0.7,0 1.258,0.084 1.672,0.248 l 0,0 c 0.416,0.167 0.731,0.374 0.946,0.623 l 0,0 c 0.216,0.25 0.354,0.518 0.415,0.802 l 0,0 c 0.062,0.285 0.093,0.55 0.093,0.796 l 0,0 c 0,0.285 -0.049,0.541 -0.15,0.767 l 0,0 c -0.1,0.227 -0.225,0.425 -0.375,0.594 l 0,0 c -0.15,0.17 -0.313,0.312 -0.489,0.427 l 0,0 c -0.178,0.115 -0.348,0.204 -0.509,0.265 l 0,0 -0.623,0.243 c -0.377,0.146 -0.707,0.263 -0.991,0.351 l 0,0 c -0.286,0.09 -0.522,0.176 -0.711,0.26 l 0,0 c -0.188,0.085 -0.331,0.183 -0.426,0.295 l 0,0 c -0.096,0.111 -0.144,0.267 -0.144,0.467 l 0,0 c 0,0.155 0.04,0.284 0.121,0.391 l 0,0 c 0.08,0.109 0.188,0.197 0.323,0.266 l 0,0 c 0.135,0.069 0.29,0.12 0.467,0.15 l 0,0 c 0.177,0.031 0.365,0.046 0.566,0.046 l 0,0 c 0.684,0 1.472,-0.242 2.364,-0.726 l 0,0 0.15,1.511 c -0.115,0.069 -0.265,0.142 -0.45,0.219 l 0,0 c -0.184,0.078 -0.392,0.145 -0.622,0.201 l 0,0 c -0.232,0.06 -0.476,0.107 -0.733,0.145 l 0,0 c -0.257,0.039 -0.514,0.058 -0.767,0.058 l 0,0 c -0.5,0 -0.935,-0.07 -1.304,-0.207 m 184.271,0.046 0,-5.215 -3.45,5.215 -1.455,0 0,-8.075 1.477,0 0,5.537 3.692,-5.537 1.212,0 0,8.075 -1.476,0 z m -54.85,-8.075 1.477,0 0,8.075 -1.477,0 0,-8.075 z m -26.069,8.075 0,-1.431 2.285,0 0,-6.644 1.476,0 0,6.644 2.284,0 0,1.431 -6.045,0 z m -21.408,0 0,-4.126 c 0,-0.431 -0.03,-0.814 -0.093,-1.151 l 0,0 c -0.061,-0.334 -0.162,-0.617 -0.305,-0.847 l 0,0 c -0.142,-0.233 -0.334,-0.408 -0.577,-0.527 l 0,0 c -0.242,-0.119 -0.54,-0.179 -0.893,-0.179 l 0,0 c -0.362,0 -0.663,0.06 -0.9,0.179 l 0,0 c -0.239,0.119 -0.43,0.294 -0.572,0.527 l 0,0 c -0.141,0.23 -0.244,0.513 -0.306,0.847 l 0,0 c -0.061,0.337 -0.092,0.72 -0.092,1.151 l 0,0 0,4.126 -1.476,0 0,-4.615 c 0,-1.13 0.28,-2.018 0.842,-2.659 l 0,0 c 0.562,-0.643 1.396,-0.964 2.504,-0.964 l 0,0 c 1.107,0 1.941,0.321 2.503,0.964 l 0,0 c 0.561,0.641 0.842,1.529 0.842,2.659 l 0,0 0,4.615 -1.477,0 z m -29.726,0 0,-8.075 4.8,0 0,1.43 -3.323,0 0,6.645 -1.477,0 z"
               style="fill:url(#linearGradient3476);stroke:none"
               id="path3484"
               inkscape:connector-curvature="0" /></g></g></g></g><g
       id="g3486"
       transform="matrix(2.7510449,0,0,2.2345456,-521.9251,-449.39365)"><g
         id="g3488"><g
           id="g3494"><g
             id="g3496"><path
               d="m 327.748,486.193 c -25.435,-3.946 -50.64,2.196 -56.803,-43.554 l 0,0 c 14.188,9.133 34.943,-1.298 51.128,10.949 l 0,0 c 11.721,8.87 9.483,24.829 24.361,41.484 l 0,0 c -7.274,-5.775 -13.002,-7.996 -18.686,-8.879 m -2.903,-11.358 c 0,0.52 -0.023,1.035 -0.069,1.543 l 0,0 c 0.851,-0.044 1.835,-0.315 2.55,-0.797 l 0,0 c -0.879,-12.033 -10.92,-21.524 -23.178,-21.524 l 0,0 c -6.816,0 -12.945,2.935 -17.197,7.608 l 0,0 c 1.248,3.368 2.775,5.052 5.198,7.333 l 0,0 c 0.255,-2.013 1.273,-4.109 3.257,-6.143 l 0,0 c 3.116,-3.194 7.467,-5.177 12.281,-5.177 l 0,0 c 9.476,0 17.158,7.681 17.158,17.157"
               style="fill:url(#linearGradient3498);stroke:none"
               id="path3506"
               inkscape:connector-curvature="0" /></g></g></g></g><g
       id="g3508"
       transform="matrix(2.7510449,0,0,2.2345456,-521.9251,-449.39361)"><g
         id="g3510"><g
           id="g3516"><g
             id="g3518"><path
               d="m 357.16,535.386 c -26.467,-11.34 -58.077,-17.455 -86.969,-19.046 l 0,0 c -10.65,-0.587 -23.392,1.12 -36.019,2.827 l 0,0 c -16.367,2.213 -32.54,4.425 -43.709,1.643 l 0,0 c 19.168,-16.91 61.322,-21.715 68.101,-57.61 l 0,0 c 9.18,25.073 37.22,33.5 63.423,34.61 l 0,0 c 15.571,0.659 29.454,5.626 41.099,11.901 l 0,0 c -18.705,-21.604 -3.891,-53.382 -35.653,-66.915 l 0,0 c -28.302,-12.058 -57.167,-13.735 -70.037,-42.31 l 0,0 c -7.482,3.243 -18.975,41.376 -2.404,51.442 l 0,0 c -8.297,27.705 -17.946,31.931 -36.263,39.62 l 0,0 c 6.615,-10.027 -1.397,-14.084 1.052,-25.815 l 0,0 c 1.753,-8.394 9.439,-19.274 25.327,-15.557 l 0,0 C 224.23,436.15 236.063,378.85 264.658,365 l 0,0 c 8.147,39.129 108.397,77.462 129.132,68.929 l 0,0 c -27.473,36.929 -24.312,85.066 11.023,116.72 l 0,0 c -12.588,-0.623 -26.61,-6.246 -47.653,-15.263 M 225.961,480.528 c 0.555,0.091 1.387,-0.331 1.981,-0.683 l 0,0 c -7.699,-10.105 0.649,-26.983 15.017,-18.156 l 0,0 c 0.332,-1.211 0.261,-4.008 0.097,-4.849 l 0,0 c -1.698,-0.834 -3.542,-1.227 -5.398,-1.228 l 0,0 c -9.587,0 -19.529,10.488 -11.697,24.916"
               style="fill:url(#linearGradient3520);stroke:none"
               id="path3528"
               inkscape:connector-curvature="0" /></g></g></g></g></g></svg>